<svg height="2500" viewBox="0 0 900 900" width="2500" xmlns="http://www.w3.org/2000/svg"><path d="m0 0h900v900h-900z" fill="#92160a"/><path d="m0 0h900v900h-900zm300 114-101 1-1 84h-75l-7 1v581l4 1h578l1-46v-37l81 1 1-1 1-583-1-1-199-1z" fill="#fefffe"/><path d="m123 199h76l1 187v311l1 1 498 1v37l-1 46h-581l-1-1v-581z" fill="#009697"/><path d="m270 365h48l3 3 19 42 12 27 19 41 14 31v2h2l-1-59v-65l1-20 1-1 21-1h24l2 1v235l-1 1h-34l-17-2-5-10-12-27-13-29-24-52-10-22-2-2v27l1 66-1 50-1 1h-47l-1-1v-234zm187 0h59l2 2 5 15 11 27 9 22 1 2h2l8-16 10-24 10-25 1-2 20-1h37l1 3-9 21-17 36-18 39-8 19 1 5 8 17 9 17 13 28 18 38 6 13v1h-59l-8-16-13-33-9-21v-2l-3 3-11 27-14 36-4 6h-57l-1-4 6-12 10-23 8-16 14-29 9-20 6-14-1-8-17-34-12-26-16-33-7-15z" fill="#fefffe"/></svg>